<svg width="412" height="412" viewBox="0 0 412 412" fill="none" xmlns="http://www.w3.org/2000/svg">
<circle cx="206" cy="206" r="206" fill="#0B3536"/>
<path d="M150.473 145.6C150.073 149.4 149.273 152.6 148.073 155.2C146.873 157.8 146.173 160.8 145.973 164.2C145.973 164.6 145.673 164.7 145.073 164.5C144.073 164.5 143.573 164.7 143.573 165.1C143.573 169.5 142.873 173.7 141.473 177.7C140.273 181.5 138.873 185.3 137.273 189.1C137.073 189.9 136.773 190.7 136.373 191.5C135.973 192.3 135.773 193.2 135.773 194.2C135.573 197.2 135.173 200.3 134.573 203.5C134.173 206.5 133.473 209.5 132.473 212.5C131.673 215.3 130.473 218 128.873 220.6C127.473 223 126.573 225.7 126.173 228.7C125.973 230.5 125.573 232.7 124.973 235.3C124.573 237.7 124.073 239.8 123.473 241.6C122.273 245 121.273 249 120.473 253.6C119.673 258 118.373 261.7 116.573 264.7C116.173 265.7 115.773 266.7 115.373 267.7C114.973 268.7 114.673 269.8 114.473 271C114.473 271.8 114.273 272.6 113.873 273.4C113.673 274 113.373 274.7 112.973 275.5C111.373 278.9 108.473 280.4 104.273 280C100.873 279.4 98.1734 277.6 96.1734 274.6H95.5734C93.9734 273.2 92.4734 271.5 91.0734 269.5C90.2734 267.9 89.4734 266.2 88.6734 264.4C87.8734 262.4 87.6734 259.7 88.0734 256.3C88.8734 251.9 89.9734 247.4 91.3734 242.8C92.9734 238 94.3734 233.4 95.5734 229C99.9734 212.8 104.473 195.5 109.073 177.1C113.873 158.7 119.573 141.6 126.173 125.8C127.173 123.4 129.173 122.2 132.173 122.2C134.373 122.4 136.573 123.6 138.773 125.8C139.973 127.2 141.273 128.5 142.673 129.7C144.073 130.7 145.273 132 146.273 133.6C149.473 137.4 150.873 141.4 150.473 145.6ZM232.973 146.2C233.173 148.8 232.173 151.1 229.973 153.1C227.973 155.1 225.673 157 223.073 158.8C220.673 160.6 218.873 162.7 217.673 165.1C216.473 167.3 215.173 168.8 213.773 169.6C209.573 173.4 205.873 177.7 202.673 182.5C202.073 183.3 201.473 184.1 200.873 184.9C200.273 185.5 199.573 186.1 198.773 186.7C195.173 189.3 192.073 192.4 189.473 196C186.873 199.6 185.073 203.7 184.073 208.3C183.073 213.7 183.573 219.6 185.573 226C187.773 232.4 190.073 238.8 192.473 245.2C194.873 251.4 196.073 257.1 196.073 262.3C196.073 266.7 194.073 269.7 190.073 271.3C188.273 272.3 186.673 272.7 185.273 272.5C183.873 272.1 182.673 271.3 181.673 270.1C180.873 268.7 179.873 267.4 178.673 266.2C175.673 263.6 173.373 261.5 171.773 259.9C170.373 258.1 168.973 254.4 167.573 248.8C166.773 245 165.573 240.5 163.973 235.3C162.373 230.1 160.873 224.7 159.473 219.1C158.073 213.5 157.173 208.2 156.773 203.2C156.373 198 156.873 193.6 158.273 190C163.473 177.2 170.373 166.3 178.973 157.3C187.573 148.3 196.073 139.3 204.473 130.3C207.673 127.1 211.373 126.5 215.573 128.5C219.573 130.1 223.373 132.6 226.973 136C230.773 139.4 232.773 142.8 232.973 146.2ZM339.457 211.3C342.257 215.5 342.057 219.4 338.857 223C338.657 223 338.457 223.1 338.257 223.3C338.257 223.3 338.157 223.3 337.957 223.3C336.357 224.9 335.257 226.7 334.657 228.7C333.057 231.9 330.657 234.2 327.457 235.6C324.257 236.8 320.757 237.6 316.957 238C313.157 238.4 309.557 238.9 306.157 239.5C303.957 240.1 301.957 240.8 300.157 241.6C298.357 242.2 296.457 242.7 294.457 243.1C289.657 244.3 285.657 243.3 282.457 240.1C281.657 239.3 280.857 238.6 280.057 238C279.257 237.2 278.457 236.4 277.657 235.6C276.457 234.6 275.157 234.4 273.757 235C272.357 235.4 271.657 236.4 271.657 238C271.257 241.8 272.057 245.7 274.057 249.7C276.257 253.5 278.657 256.2 281.257 257.8C285.057 259.6 289.457 260.4 294.457 260.2C299.457 260 304.557 259.3 309.757 258.1C314.957 256.9 319.657 255.9 323.857 255.1C325.457 254.7 327.157 254.8 328.957 255.4C330.957 256 332.457 257.1 333.457 258.7C333.657 258.9 333.857 259.2 334.057 259.6C334.457 260 334.657 260.4 334.657 260.8C335.657 262.8 335.757 264.8 334.957 266.8C334.357 268.8 333.157 270.3 331.357 271.3C331.357 271.5 331.257 271.6 331.057 271.6C330.857 271.6 330.657 271.8 330.457 272.2C329.657 273 328.657 273.7 327.457 274.3C326.257 274.7 325.157 275.1 324.157 275.5C320.757 276.3 317.457 276.9 314.257 277.3C311.257 277.9 307.757 278.4 303.757 278.8C302.157 279.4 300.557 279.4 298.957 278.8C293.957 278 288.757 277.3 283.357 276.7C277.957 276.1 272.957 274.8 268.357 272.8C263.957 270.6 260.457 266.9 257.857 261.7C257.657 261.3 257.357 260.9 256.957 260.5C256.757 260.1 256.557 259.6 256.357 259C253.157 254.6 251.457 249.1 251.257 242.5C251.057 235.7 251.957 229 253.957 222.4C255.957 215.8 258.457 210.6 261.457 206.8C263.657 204.2 266.157 202.4 268.957 201.4C271.757 200.2 274.757 198.6 277.957 196.6C284.557 192.8 291.857 191.1 299.857 191.5C307.857 191.7 315.457 193.6 322.657 197.2C329.857 200.6 335.457 205.3 339.457 211.3ZM319.957 210.7C319.757 210.1 319.357 209.7 318.757 209.5C318.157 209.1 317.557 208.8 316.957 208.6C313.957 208.6 310.357 208.8 306.157 209.2C302.157 209.4 299.857 209.7 299.257 210.1C298.857 210.5 298.057 210.9 296.857 211.3C294.257 212.5 291.557 213.5 288.757 214.3C286.157 214.9 283.857 215.9 281.857 217.3C280.457 218.1 279.957 219.3 280.357 220.9C280.957 222.5 282.057 223.4 283.657 223.6C288.857 224.4 294.257 224.3 299.857 223.3C305.457 222.1 310.457 220.5 314.857 218.5C316.657 217.3 318.357 215.9 319.957 214.3C320.957 212.9 320.957 211.7 319.957 210.7Z" fill="#E5E7DE"/>
</svg>
