<svg xmlns="http://www.w3.org/2000/svg" version="1.1" xmlns:xlink="http://www.w3.org/1999/xlink" xmlns:svgjs="http://svgjs.com/svgjs" width="1000" height="1000"><rect width="1000" height="1000" rx="150" ry="150" fill="#ffffff"></rect><g transform="matrix(1,0,0,1,0,0)"><svg xmlns="http://www.w3.org/2000/svg" version="1.1" xmlns:xlink="http://www.w3.org/1999/xlink" xmlns:svgjs="http://svgjs.com/svgjs" width="598.000000pt" height="690.000000pt"><svg version="1.0" xmlns="http://www.w3.org/2000/svg" width="598.000000pt" height="690.000000pt" viewBox="0 0 598.000000 690.000000" preserveAspectRatio="xMidYMid meet">

<g transform="translate(0.000000,690.000000) scale(0.100000,-0.100000)" fill="#000000" stroke="none">
<path d="M2914 6628 c-15 -23 -56 -97 -92 -163 -35 -66 -108 -199 -162 -295
-53 -96 -116 -211 -140 -255 -24 -44 -85 -156 -137 -248 -52 -93 -115 -208
-140 -255 -25 -48 -63 -116 -83 -152 -46 -80 -291 -535 -389 -722 -40 -76 -69
-138 -64 -139 32 -4 189 4 191 9 1 4 36 71 78 149 l76 141 46 -15 c26 -8 66
-24 89 -34 24 -10 46 -19 50 -19 5 0 18 19 31 43 18 33 20 44 10 50 -7 5 -48
28 -91 53 l-77 45 51 97 c98 183 111 207 119 217 4 6 23 39 42 75 20 36 121
218 226 405 347 621 384 685 392 685 3 0 14 -17 26 -38 11 -20 81 -145 156
-277 238 -423 418 -750 418 -761 0 -4 6 -15 14 -23 12 -15 96 -169 96 -178 0
-2 -60 -42 -132 -90 -257 -166 -256 -165 -240 -186 5 -7 34 -59 64 -117 80
-152 121 -224 132 -232 13 -9 457 -9 599 0 l107 7 -171 320 c-362 680 -368
690 -629 1160 -64 116 -133 239 -152 275 -20 36 -88 159 -152 273 -64 115
-116 213 -116 217 0 26 -23 15 -46 -22z m913 -1933 c53 -90 67 -122 57 -128
-7 -4 -84 -6 -170 -5 l-157 3 -48 90 -48 89 22 15 c12 9 69 44 126 78 l104 61
22 -41 c12 -23 53 -96 92 -162z"></path>
<path d="M3623 4747 c-37 -25 -39 -36 -17 -78 12 -24 20 -29 36 -23 17 5 32 9
58 13 3 1 11 5 19 10 11 7 8 18 -14 55 -15 25 -32 46 -38 45 -7 0 -26 -11 -44
-22z"></path>
<path d="M2865 5998 c-97 -170 -169 -312 -159 -315 5 -2 46 -25 91 -51 l81
-48 -47 -90 c-60 -112 -130 -237 -139 -246 -7 -6 -95 34 -154 70 -19 12 -38
18 -43 14 -6 -4 -23 -31 -38 -60 -20 -39 -25 -57 -18 -66 6 -7 47 -32 91 -56
l80 -43 -39 -71 c-21 -39 -47 -87 -57 -106 -11 -19 -20 -37 -21 -39 -2 -2 -21
8 -43 23 -26 17 -38 31 -33 39 4 7 22 35 40 64 l33 52 -57 30 c-31 17 -58 29
-60 28 -1 -2 -34 -63 -72 -135 l-69 -132 85 -51 c46 -28 87 -57 89 -63 3 -7
-17 -51 -43 -99 l-48 -87 -105 0 -105 0 -47 -78 c-25 -42 -43 -81 -38 -85 4
-5 94 -6 199 -2 l191 8 82 156 c45 86 91 172 103 191 12 19 48 85 80 145 58
109 224 408 252 453 14 23 18 17 120 -170 58 -106 119 -220 135 -253 17 -33
32 -61 33 -63 2 -2 37 19 78 46 42 27 110 69 151 93 42 24 76 49 76 56 0 18
-22 63 -31 63 -11 0 -88 -43 -136 -75 -19 -14 -40 -25 -44 -25 -9 0 -103 180
-97 185 2 1 18 7 35 13 30 10 34 9 53 -18 11 -15 20 -33 20 -39 0 -6 5 -11 11
-11 8 0 81 38 107 56 4 2 -93 194 -111 218 -14 19 -25 14 -164 -74 -12 -8 -23
-12 -25 -10 -2 3 -30 57 -62 120 -32 63 -86 164 -118 223 -33 60 -58 109 -56
110 1 1 17 12 35 25 35 24 43 27 43 13 0 -12 71 -131 77 -131 14 0 72 42 77
55 3 8 -27 72 -66 142 -91 164 -117 202 -138 203 -3 0 -32 -46 -65 -102z"></path>
<path d="M2234 6068 c-4 -13 -20 -35 -36 -50 l-30 -28 44 -48 43 -49 28 37
c15 21 35 41 44 44 14 6 12 11 -14 39 -17 18 -36 42 -42 55 -15 28 -28 28 -37
0z"></path>
<path d="M3620 6081 c0 -6 -16 -29 -36 -51 l-37 -41 27 -27 c14 -15 32 -36 40
-46 12 -18 15 -17 58 27 l44 47 -48 51 c-26 28 -48 46 -48 40z"></path>
<path d="M1794 5885 c-15 -23 -15 -27 0 -50 28 -42 96 -24 96 25 0 49 -68 67
-96 25z"></path>
<path d="M3995 5886 c-18 -27 -13 -46 16 -64 45 -28 93 20 64 64 -20 31 -59
32 -80 0z"></path>
<path d="M1958 5765 c-21 -23 -38 -45 -38 -49 0 -8 71 -71 80 -71 3 0 21 17
39 38 l33 37 -31 35 c-17 20 -31 40 -31 45 0 18 -15 8 -52 -35z"></path>
<path d="M3856 5761 c-16 -22 -29 -41 -30 -43 0 -2 13 -21 30 -42 l32 -38 39
39 39 39 -36 42 c-19 23 -38 42 -40 42 -3 0 -18 -18 -34 -39z"></path>
<path d="M1317 5784 c-10 -10 -8 -166 2 -183 5 -8 16 -11 25 -8 24 9 19 190
-4 195 -9 1 -19 0 -23 -4z"></path>
<path d="M4316 5729 c-17 -24 -12 -45 14 -59 26 -14 49 -2 57 28 4 18 1 29
-12 39 -26 18 -42 16 -59 -8z"></path>
<path d="M1439 5693 c-24 -63 -3 -138 27 -98 13 18 27 103 18 116 -11 18 -35
8 -45 -18z"></path>
<path d="M1686 5677 c-21 -15 -18 -45 6 -60 12 -8 21 -7 32 2 21 17 21 57 0
65 -20 8 -17 8 -38 -7z"></path>
<path d="M1121 5666 c-16 -19 42 -116 70 -116 26 0 24 16 -9 74 -30 55 -43 64
-61 42z"></path>
<path d="M3147 5639 l-47 -31 31 -59 c16 -33 36 -62 43 -65 10 -4 73 30 93 50
4 3 -55 117 -66 129 -4 4 -28 -7 -54 -24z"></path>
<path d="M980 5595 c-11 -13 -4 -24 46 -69 58 -53 84 -61 84 -26 0 17 -91 110
-108 110 -5 0 -15 -7 -22 -15z"></path>
<path d="M2596 5523 c-43 -82 -45 -89 -28 -101 35 -27 95 -53 102 -45 13 13
93 164 89 167 -25 17 -107 66 -112 66 -3 0 -26 -39 -51 -87z"></path>
<path d="M1317 5500 c-105 -27 -177 -93 -211 -194 -66 -200 84 -399 290 -383
201 15 315 185 263 393 -14 55 -83 134 -142 163 -50 24 -146 34 -200 21z m27
-284 c-3 -15 2 -42 14 -70 33 -74 120 -113 181 -83 36 18 40 9 9 -21 -31 -28
-71 -42 -121 -42 -92 0 -144 105 -103 205 17 40 29 47 20 11z"></path>
<path d="M4394 5471 c-118 -34 -181 -86 -226 -188 -35 -80 -7 -181 73 -259 76
-74 133 -96 254 -98 90 -1 106 2 161 27 73 34 133 92 170 167 46 91 34 159
-43 250 -90 105 -241 144 -389 101z m259 -150 c36 -16 126 -74 167 -108 14
-12 -108 -89 -186 -119 -131 -49 -293 -20 -401 72 l-54 47 68 44 c75 49 96 59
163 79 60 19 183 11 243 -15z"></path>
<path d="M1767 5434 c-51 -27 -67 -48 -48 -67 16 -16 143 50 139 72 -5 25 -38
23 -91 -5z"></path>
<path d="M950 5411 c0 -12 11 -23 30 -29 25 -9 31 -8 39 7 13 24 -4 41 -41 41
-21 0 -28 -5 -28 -19z"></path>
<path d="M853 5294 c-11 -29 26 -45 92 -42 52 3 60 6 63 24 3 19 -3 22 -50 27
-81 10 -98 8 -105 -9z"></path>
<path d="M1763 5284 c-9 -24 11 -36 51 -29 26 5 36 12 36 26 0 16 -7 19 -40
19 -28 0 -43 -5 -47 -16z"></path>
<path d="M3940 5235 c0 -24 3 -25 55 -25 52 0 55 1 55 25 0 24 -3 25 -55 25
-52 0 -55 -1 -55 -25z"></path>
<path d="M4950 5235 c0 -25 2 -26 58 -23 50 3 57 6 60 26 3 21 0 22 -57 22
-59 0 -61 -1 -61 -25z"></path>
<path d="M1762 5158 c-21 -21 7 -38 65 -38 40 0 55 4 60 16 3 9 1 19 -6 23
-20 13 -106 12 -119 -1z"></path>
<path d="M2886 5032 c-27 -48 -103 -188 -171 -312 -67 -124 -133 -246 -148
-272 l-27 -48 23 0 c12 0 189 -1 394 -2 204 -2 374 0 378 3 3 4 -11 35 -33 70
-34 56 -71 121 -174 309 -14 25 -60 109 -102 187 -43 79 -81 145 -85 147 -4 3
-29 -34 -55 -82z"></path>
<path d="M955 5060 c-76 -17 -121 -60 -76 -75 23 -7 110 31 118 52 8 22 -8 31
-42 23z"></path>
<path d="M1714 5039 c-9 -15 1 -23 71 -58 44 -22 63 -27 72 -19 18 15 16 38
-4 45 -10 3 -37 14 -60 24 -48 22 -69 24 -79 8z"></path>
<path d="M1047 4922 c-42 -26 -49 -72 -11 -72 24 0 75 56 68 74 -8 20 -21 19
-57 -2z"></path>
<path d="M1151 4853 c-33 -40 -47 -81 -32 -96 18 -18 38 1 65 57 30 64 30 62
11 69 -9 4 -26 -8 -44 -30z"></path>
<path d="M1303 4823 c-12 -45 -9 -136 4 -140 18 -6 30 25 37 100 6 63 5 67
-14 67 -13 0 -22 -9 -27 -27z"></path>
<path d="M640 4805 c-10 -12 -10 -18 0 -30 10 -13 33 -15 114 -13 100 3 101 3
101 28 0 25 -1 25 -101 28 -81 2 -104 0 -114 -13z"></path>
<path d="M4993 4804 c-3 -9 -2 -24 4 -33 8 -13 28 -16 109 -14 103 1 125 10
111 47 -9 24 -215 24 -224 0z"></path>
<path d="M1417 4738 c6 -83 9 -90 35 -86 21 3 23 7 20 58 -5 77 -10 90 -37 90
-22 0 -23 -2 -18 -62z"></path>
<path d="M1614 4786 c-15 -40 21 -80 54 -60 37 24 21 74 -25 74 -13 0 -26 -6
-29 -14z"></path>
<path d="M4179 4771 c-26 -21 -19 -56 13 -67 29 -9 62 29 48 56 -14 27 -37 31
-61 11z"></path>
<path d="M4662 4768 c-17 -17 -15 -32 8 -53 18 -17 21 -17 45 -1 39 25 27 66
-20 66 -12 0 -26 -5 -33 -12z"></path>
<path d="M245 4560 c-7 -12 49 -173 77 -218 24 -39 108 -109 155 -128 21 -9
30 -19 27 -28 -7 -19 30 -104 59 -134 30 -32 83 -64 121 -71 27 -6 32 -12 36
-47 12 -89 85 -152 190 -162 44 -4 50 -7 55 -33 14 -64 118 -135 238 -163 81
-19 302 -22 291 -4 -4 7 -19 31 -33 53 -14 22 -30 49 -36 60 -9 17 -24 21
-105 26 -98 7 -142 19 -172 46 -17 15 -17 17 5 27 12 7 52 20 90 30 l67 18
-20 32 c-21 33 -26 34 -109 17 -92 -19 -171 -14 -227 14 -50 25 -83 61 -67 75
11 10 240 33 253 25 5 -3 25 -3 44 1 l35 6 -15 31 -15 32 -177 0 c-143 1 -187
4 -229 18 -46 16 -123 72 -123 90 0 4 101 7 225 7 138 0 225 4 225 10 0 5 -7
25 -17 44 l-16 35 -206 3 c-235 4 -282 15 -357 85 l-39 38 560 5 560 5 37 70
c21 39 38 76 38 83 0 15 -1415 18 -1425 2z"></path>
<path d="M4210 4562 c0 -1 18 -38 40 -82 l40 -80 552 -2 551 -3 -34 -34 c-18
-19 -59 -46 -89 -60 -53 -25 -64 -26 -265 -29 l-210 -3 -23 -40 -23 -39 216
-1 c240 -2 231 -1 241 -12 9 -9 -32 -54 -68 -73 -79 -41 -118 -47 -291 -42
l-168 5 -15 -29 c-9 -17 -13 -32 -10 -35 2 -3 78 -9 168 -14 90 -5 167 -11
171 -12 4 -1 -4 -18 -18 -37 -33 -45 -93 -69 -175 -69 -59 0 -84 3 -176 24
-29 6 -33 4 -48 -26 -9 -17 -16 -35 -16 -39 0 -3 30 -12 68 -20 128 -25 140
-38 65 -73 -38 -17 -68 -21 -140 -22 l-91 0 -18 -35 c-10 -19 -29 -52 -42 -73
-13 -22 -21 -41 -18 -44 3 -3 52 -5 110 -4 194 4 334 55 394 146 29 44 42 53
96 71 35 12 76 30 91 40 37 24 75 87 75 124 0 20 6 33 18 36 118 40 177 95
191 184 5 29 15 39 71 71 66 38 109 80 137 134 17 32 73 184 73 198 0 5 -322
7 -715 5 -393 -2 -715 -4 -715 -6z"></path>
<path d="M2390 4289 c0 -71 94 -220 182 -289 62 -50 67 -57 36 -62 -15 -2 -29
-16 -41 -41 -27 -55 -10 -123 44 -172 35 -31 45 -35 94 -35 34 0 65 6 80 16
23 15 25 14 54 -18 l30 -33 1 30 c1 36 30 105 53 124 14 11 20 11 34 0 24 -21
43 -73 43 -120 0 -36 2 -40 16 -28 8 7 22 26 30 42 15 27 16 28 34 12 62 -56
185 -23 225 61 31 66 13 149 -36 161 -10 3 -19 8 -19 11 0 2 37 40 83 83 67
62 89 91 114 146 17 37 34 83 38 102 7 32 6 33 -16 28 -13 -3 -43 -9 -66 -13
-38 -6 -43 -10 -43 -33 0 -88 -113 -210 -267 -288 -131 -66 -173 -66 -304 -1
-152 76 -269 199 -269 286 0 25 -1 25 -77 39 -48 9 -53 8 -53 -8z m264 -421
c8 -42 23 -58 54 -58 27 0 62 25 62 46 0 9 5 10 25 1 29 -14 26 -39 -10 -75
-26 -28 -92 -40 -124 -22 -35 18 -55 76 -40 111 15 37 25 37 33 -3z m606 -20
c0 -40 -15 -65 -50 -83 -47 -24 -78 -19 -117 20 -38 38 -41 68 -6 73 14 2 23
-3 28 -17 14 -44 91 -38 101 7 11 53 13 55 29 42 8 -7 15 -26 15 -42z"></path>
<path d="M1240 4264 c0 -7 112 -206 230 -409 51 -88 103 -178 116 -200 12 -22
45 -77 72 -123 l49 -83 -53 -97 c-29 -53 -57 -103 -61 -111 -7 -10 -19 -7 -57
19 -26 18 -44 35 -39 39 9 6 74 132 73 142 0 14 -109 -12 -159 -38 -41 -22
-61 -41 -89 -86 l-36 -58 30 -24 c25 -21 78 -54 300 -188 26 -15 48 -27 49
-25 1 2 19 35 40 73 21 39 72 131 113 205 42 74 103 187 137 250 34 63 86 160
116 215 132 238 269 492 269 498 0 4 -247 7 -550 7 -302 0 -550 -3 -550 -6z
m820 -170 c0 -4 -22 -46 -50 -94 -27 -49 -77 -142 -111 -207 -77 -147 -88
-165 -98 -159 -5 3 -32 47 -61 98 -29 51 -89 153 -132 225 -43 73 -78 135 -78
138 0 3 119 5 265 5 146 0 265 -3 265 -6z"></path>
<path d="M2585 4248 c20 -66 85 -132 210 -213 44 -29 94 -64 110 -79 17 -14
33 -26 36 -26 3 0 18 14 34 30 16 17 63 51 105 75 99 57 155 106 190 169 17
28 30 54 30 58 0 10 -53 0 -130 -24 -110 -35 -153 -62 -208 -133 -23 -28 -24
-29 -35 -10 -35 64 -135 125 -255 156 -94 24 -95 24 -87 -3z"></path>
<path d="M3538 4258 c5 -7 45 -80 87 -163 43 -82 131 -244 196 -360 64 -115
136 -246 159 -290 24 -44 69 -125 100 -180 32 -56 72 -130 90 -165 18 -36 33
-66 35 -68 1 -1 48 26 103 60 56 35 144 89 197 122 52 32 95 62 95 67 0 20
-45 76 -81 102 -51 37 -111 57 -170 57 -27 0 -49 -2 -49 -4 0 -2 18 -34 40
-70 42 -70 48 -86 28 -86 -7 0 -24 -9 -38 -20 -35 -27 -42 -25 -66 18 -11 20
-37 67 -58 104 l-37 67 24 38 c31 49 409 708 431 751 l17 32 -557 0 c-444 0
-554 -3 -546 -12z m811 -164 c2 -1 -6 -15 -16 -31 -11 -15 -70 -117 -132 -225
-62 -109 -116 -200 -121 -203 -4 -3 -48 66 -96 152 -48 87 -107 191 -131 231
-24 41 -43 77 -43 81 0 6 531 2 539 -5z"></path>
<path d="M2415 3967 c-24 -74 -27 -95 -23 -178 5 -107 24 -151 100 -229 66
-67 136 -95 234 -95 54 1 87 5 98 14 14 12 19 11 37 -5 12 -10 32 -38 46 -61
14 -24 27 -43 29 -43 2 0 22 27 44 60 41 61 56 70 79 48 8 -9 42 -13 99 -13
70 0 96 5 133 23 75 37 125 87 161 159 27 55 33 80 36 153 4 77 1 97 -22 157
-40 105 -39 104 -84 59 l-40 -38 24 -41 c65 -114 -8 -284 -132 -311 -79 -17
-165 -4 -186 28 -4 6 -8 8 -10 6 -2 -3 -15 -21 -29 -40 -15 -19 -36 -55 -49
-80 l-23 -44 -27 54 c-36 71 -67 104 -89 94 -98 -42 -164 -40 -234 7 -93 62
-127 182 -78 278 l23 43 -38 39 c-21 22 -41 39 -45 39 -3 0 -19 -38 -34 -83z"></path>
<path d="M2284 3857 c-81 -109 -105 -209 -69 -292 20 -45 22 -42 46 48 6 26
25 64 40 84 27 33 29 41 28 119 -1 46 -4 84 -8 84 -3 0 -20 -20 -37 -43z"></path>
<path d="M3550 3821 c0 -71 3 -87 24 -114 13 -18 31 -49 40 -70 17 -42 16 -37
16 -77 0 -41 16 -38 36 8 25 59 14 149 -25 214 -18 29 -46 69 -62 88 l-29 34
0 -83z"></path>
<path d="M414 3735 c-19 -30 -13 -52 18 -64 53 -19 91 35 50 72 -26 24 -49 21
-68 -8z"></path>
<path d="M5382 3748 c-16 -16 -15 -53 2 -67 22 -19 68 -9 77 15 16 45 -46 85
-79 52z"></path>
<path d="M2339 3623 c-47 -123 -52 -323 -11 -440 45 -129 132 -244 251 -334
l64 -49 27 25 c14 14 31 25 38 25 19 0 14 18 -18 65 -63 91 -73 134 -78 325
-3 115 -8 178 -16 182 -22 15 -33 7 -46 -31 -15 -47 -8 -303 10 -364 6 -21 10
-48 7 -60 -5 -31 -63 91 -77 162 -13 72 -12 248 3 290 12 34 11 36 -38 85 -28
28 -61 72 -74 99 -12 26 -25 47 -27 47 -3 0 -9 -12 -15 -27z"></path>
<path d="M3493 3599 c-17 -31 -51 -76 -75 -100 l-44 -44 13 -50 c20 -73 12
-231 -16 -333 -21 -74 -81 -175 -66 -110 15 67 35 220 35 273 0 56 -17 185
-25 193 -2 2 -13 1 -25 -3 -20 -6 -22 -12 -18 -56 8 -80 -9 -290 -28 -344 -9
-27 -34 -76 -55 -109 -22 -32 -39 -60 -39 -62 0 -2 8 -4 17 -4 9 0 27 -10 40
-22 23 -22 24 -22 56 -3 128 74 267 261 298 402 29 127 21 295 -19 385 l-18
42 -31 -55z"></path>
<path d="M706 3534 c-31 -30 -9 -84 35 -84 20 0 59 33 59 50 0 17 -39 50 -59
50 -11 0 -27 -7 -35 -16z"></path>
<path d="M5094 3526 c-15 -24 -15 -28 0 -52 34 -50 101 -15 80 43 -13 39 -56
44 -80 9z"></path>
<path d="M360 3400 l0 -60 75 0 75 0 0 60 0 60 -75 0 -75 0 0 -60z"></path>
<path d="M5370 3400 l0 -60 75 0 75 0 0 60 0 60 -75 0 -75 0 0 -60z"></path>
<path d="M1945 3298 c-38 -68 -113 -204 -168 -303 -54 -99 -112 -204 -129
-232 l-29 -53 416 0 416 0 -37 58 c-69 107 -159 257 -270 452 -61 106 -116
196 -121 197 -5 2 -41 -52 -78 -119z"></path>
<path d="M3834 3397 c-11 -22 -329 -576 -374 -649 l-22 -38 406 0 406 0 -37
68 c-220 407 -352 642 -361 642 -4 0 -12 -10 -18 -23z"></path>
<path d="M5092 3354 c-27 -19 -28 -55 -2 -79 17 -15 24 -16 45 -7 31 14 34 61
7 85 -23 21 -22 21 -50 1z"></path>
<path d="M722 3348 c-15 -15 -15 -51 0 -66 7 -7 24 -12 38 -12 31 0 50 17 50
45 0 28 -19 45 -50 45 -14 0 -31 -5 -38 -12z"></path>
<path d="M3010 3301 c0 -33 11 -51 42 -67 51 -26 118 4 118 53 0 27 -7 28 -34
8 -28 -21 -70 -19 -91 5 -23 25 -35 25 -35 1z"></path>
<path d="M2700 3291 c0 -25 55 -71 85 -71 27 0 85 45 85 65 0 18 -23 32 -28
17 -2 -7 -10 -12 -18 -12 -8 0 -23 -5 -33 -12 -15 -9 -24 -7 -46 10 -34 27
-45 28 -45 3z"></path>
<path d="M4720 3219 c-30 -21 -98 -64 -150 -95 -128 -76 -300 -185 -300 -190
0 -2 27 -55 61 -116 148 -273 246 -457 298 -561 l56 -112 88 -3 c48 -1 87 0
87 3 0 3 -16 37 -35 75 l-35 69 30 16 c48 25 33 42 140 -165 27 -52 49 -98 49
-102 1 -5 -57 -8 -129 -8 -71 0 -130 -2 -130 -5 0 -3 20 -46 45 -95 25 -49 45
-92 45 -95 0 -3 -24 -5 -53 -5 l-53 0 -49 100 -49 100 -93 0 -93 0 0 -70 0
-69 68 -3 67 -3 0 -98 0 -97 223 0 c137 0 222 4 222 10 0 5 -11 35 -25 66 -14
32 -24 58 -23 58 6 3 198 149 198 150 0 1 -30 58 -66 126 -36 69 -102 195
-146 280 -118 227 -148 280 -159 280 -6 0 -30 -14 -54 -31 -49 -35 -49 -31 2
-111 12 -21 23 -40 23 -43 0 -6 -56 -35 -69 -35 -16 0 -118 212 -104 217 6 2
60 35 120 73 96 61 109 66 119 51 14 -20 110 -193 172 -311 25 -47 64 -119 87
-160 23 -41 65 -122 95 -180 74 -146 241 -463 250 -475 4 -5 11 -20 14 -32 l7
-23 -795 0 -796 0 0 145 0 145 135 0 135 0 0 -50 0 -50 -75 0 -75 0 0 -50 0
-50 235 0 235 0 0 55 0 55 -75 0 -75 0 0 115 0 115 -305 0 -305 0 0 -295 0
-295 1031 0 1031 0 -23 38 c-12 20 -102 186 -199 367 -97 182 -195 364 -217
405 -323 600 -509 948 -524 983 -7 15 -17 27 -23 26 -6 -1 -36 -18 -66 -40z
m-5 -218 c18 -37 21 -52 12 -59 -27 -21 -209 -133 -211 -130 -1 2 -15 25 -31
52 l-28 50 22 15 c50 35 206 128 210 125 2 -2 14 -25 26 -53z"></path>
<path d="M1026 3143 c-31 -60 -73 -139 -94 -178 -21 -38 -70 -131 -109 -205
-39 -74 -98 -184 -130 -245 -33 -60 -111 -204 -173 -320 -62 -115 -141 -262
-175 -325 -34 -63 -99 -186 -144 -273 l-82 -157 625 0 626 0 0 225 0 225 85 0
85 0 0 70 0 70 -165 0 -165 0 0 -215 0 -215 -400 0 c-235 0 -400 4 -400 9 0 5
17 42 39 83 21 40 64 123 96 183 164 314 244 465 277 524 32 56 187 349 252
475 33 65 66 120 73 123 7 3 25 -2 40 -10 29 -15 195 -108 202 -113 5 -4 -146
-296 -195 -379 -11 -18 -13 -18 -47 -1 -20 9 -39 21 -42 26 -6 9 25 83 38 88
18 9 4 33 -30 51 l-37 19 -34 -56 c-18 -30 -47 -82 -64 -115 -35 -70 -41 -61
77 -129 39 -23 94 -56 123 -75 29 -18 57 -31 62 -28 5 3 25 34 44 68 18 34 98
178 177 321 136 248 142 259 123 273 -10 8 -68 44 -129 80 -60 36 -159 98
-220 138 -170 112 -146 113 -209 -12z"></path>
<path d="M2838 3133 c-23 -15 -33 -15 -61 -5 -43 15 -57 15 -57 -1 0 -21 43
-56 76 -63 24 -4 37 0 57 18 27 24 39 59 22 64 -5 2 -22 -4 -37 -13z"></path>
<path d="M3000 3127 c0 -29 41 -67 72 -67 41 0 87 38 88 74 0 17 -2 17 -22 4
-41 -27 -70 -28 -105 -7 l-33 21 0 -25z"></path>
<path d="M5360 3101 c0 -4 -19 -30 -42 -56 -27 -31 -38 -50 -30 -53 7 -2 27
-23 45 -47 l33 -42 51 53 50 53 -22 15 c-13 8 -33 31 -45 50 -20 34 -40 47
-40 27z"></path>
<path d="M471 3046 c-5 -12 -24 -35 -41 -50 l-32 -27 45 -47 44 -48 47 49 47
50 -35 32 c-20 18 -36 37 -36 43 0 22 -31 21 -39 -2z"></path>
<path d="M2930 2997 c0 -19 -49 -47 -83 -47 -13 0 -32 7 -43 15 -27 20 -36 18
-32 -6 4 -30 51 -62 88 -62 18 0 40 9 54 23 l25 22 27 -21 c36 -29 84 -27 118
4 14 13 26 31 26 40 0 19 -2 19 -44 -1 -42 -20 -79 -13 -112 23 -18 20 -24 22
-24 10z"></path>
<path d="M1172 2868 c-5 -7 -19 -32 -30 -55 l-20 -42 43 -26 c24 -14 48 -25
52 -25 5 0 20 24 33 53 14 28 26 54 27 58 4 6 -70 49 -85 49 -5 0 -14 -6 -20
-12z"></path>
<path d="M2727 2802 c-15 -2 -34 -14 -43 -28 -11 -16 -26 -24 -45 -24 -39 0
-58 -43 -50 -117 2 -18 41 -16 41 2 0 12 28 35 44 35 3 0 6 -20 6 -43 0 -30 6
-49 19 -61 30 -28 50 -11 53 47 3 44 6 52 24 55 18 3 22 -4 30 -50 7 -44 13
-54 31 -56 25 -4 29 5 37 109 6 62 5 66 -23 93 -30 29 -77 44 -124 38z"></path>
<path d="M3093 2802 c-20 -2 -45 -15 -63 -33 -29 -29 -29 -31 -23 -112 6 -89
21 -120 47 -97 9 7 16 28 16 49 0 49 14 69 37 55 13 -8 18 -25 19 -55 1 -88
64 -72 64 17 0 53 11 61 41 29 33 -34 46 -31 51 11 6 49 -11 78 -47 82 -17 2
-41 14 -55 26 -30 28 -45 32 -87 28z"></path>
<path d="M2928 2633 c7 -3 16 -2 19 1 4 3 -2 6 -13 5 -11 0 -14 -3 -6 -6z"></path>
<path d="M1436 2388 c-59 -112 -112 -211 -117 -220 -5 -10 -9 -20 -9 -23 0 -3
52 -5 115 -5 l115 0 2 118 c1 64 2 127 3 140 l1 23 1082 2 1081 2 3 -140 3
-140 88 -3 87 -3 -2 223 -3 223 -311 3 -311 2 -45 -45 c-49 -48 -79 -56 -110
-28 -14 13 -21 14 -30 5 -23 -23 -57 -13 -95 28 -21 22 -43 40 -49 40 -6 0
-25 -18 -43 -40 -33 -42 -74 -53 -99 -28 -9 9 -16 8 -30 -5 -10 -9 -24 -17
-31 -17 -25 0 -89 43 -99 66 l-11 23 -538 1 -539 1 -108 -203z"></path>
<path d="M4004 2581 c-2 -2 -4 -103 -4 -223 l0 -218 286 0 285 0 -65 123 c-88
165 -149 279 -161 299 -8 14 -35 17 -173 20 -90 1 -166 1 -168 -1z m322 -206
c1 -75 0 -75 -77 -75 l-69 0 0 58 c0 32 3 62 7 66 4 4 37 6 73 4 l65 -3 1 -50z"></path>
<path d="M844 2255 c-26 -52 -45 -97 -43 -99 2 -1 36 -22 76 -45 40 -23 75
-45 78 -51 4 -7 -124 -280 -141 -298 -1 -2 -41 17 -88 43 -47 25 -90 44 -95
41 -15 -9 -72 -137 -65 -147 3 -5 124 -9 270 -9 l264 0 0 55 0 55 -50 0 -50 0
39 78 c21 42 66 126 100 186 34 61 58 113 54 117 -12 11 -286 169 -294 169 -4
0 -29 -43 -55 -95z"></path>
<path d="M1650 2050 l0 -249 -87 -3 -88 -3 -3 -52 -3 -53 244 0 245 0 6 23 c3
12 6 37 6 55 l0 32 -80 0 -80 0 0 170 0 170 285 0 285 0 0 -425 0 -425 598 2
597 3 3 503 2 502 -465 0 -465 0 0 -360 0 -360 198 0 c108 0 254 -3 325 -7
l127 -6 0 231 0 232 -86 0 -86 0 3 -142 4 -143 -157 0 c-87 0 -158 3 -158 8 0
4 0 93 0 197 l0 190 295 0 295 0 0 -340 0 -340 -435 0 -435 0 0 420 0 420
-445 0 -445 0 0 -250z"></path>
<path d="M714 2008 c-16 -35 -30 -66 -32 -69 -3 -6 98 -63 102 -57 8 8 67 130
64 132 -12 9 -97 56 -101 56 -2 0 -17 -28 -33 -62z"></path>
<path d="M1920 1960 l0 -70 80 0 80 0 0 -145 0 -145 -305 0 -305 0 0 -80 0
-80 390 0 390 0 0 295 0 295 -165 0 -165 0 0 -70z"></path>
<path d="M2920 1940 l0 -90 50 0 50 0 0 90 0 90 -50 0 -50 0 0 -90z"></path>
<path d="M5152 1855 c-28 -20 -52 -41 -52 -48 0 -8 7 -37 15 -65 l16 -52 88 0
c48 0 90 2 93 5 6 6 -93 195 -102 195 -3 0 -29 -16 -58 -35z"></path>
<path d="M2812 1119 l-34 -38 34 -40 c18 -23 36 -41 40 -41 3 0 21 18 38 40
l32 40 -32 40 c-17 22 -35 40 -38 39 -4 0 -22 -18 -40 -40z"></path>
<path d="M2991 1123 c-17 -21 -31 -40 -31 -43 0 -3 17 -22 38 -41 l37 -36 33
37 32 38 -32 40 c-18 23 -36 41 -40 41 -3 1 -20 -16 -37 -36z"></path>
<path d="M2466 1085 c-38 -38 -9 -55 95 -55 67 0 90 4 100 16 9 11 10 20 2 32
-15 25 -174 30 -197 7z"></path>
<path d="M3216 1084 c-37 -37 -4 -54 106 -54 86 0 108 8 108 41 0 24 -20 29
-115 29 -63 0 -88 -4 -99 -16z"></path>
<path d="M3489 574 c-131 -271 -179 -374 -179 -385 0 -10 91 -12 139 -3 24 5
31 12 31 30 0 24 1 24 103 24 l103 0 11 -30 11 -30 86 0 c47 0 86 2 86 5 0 2
-14 28 -31 57 -18 29 -83 156 -145 281 -62 126 -115 231 -118 234 -3 3 -47
-79 -97 -183z m111 -129 c0 -9 9 -33 20 -55 11 -22 20 -42 20 -45 0 -9 -99 -5
-105 5 -3 6 -2 10 2 10 5 0 17 23 27 50 17 48 36 66 36 35z"></path>
<path d="M425 538 c3 -117 5 -246 5 -285 l0 -73 105 0 c122 0 187 19 254 76
60 52 82 102 89 200 6 96 -12 145 -76 208 -68 69 -101 80 -250 84 l-133 4 6
-214z m267 47 c55 -40 71 -111 43 -183 -19 -46 -58 -71 -125 -79 l-50 -6 0
150 0 149 53 -6 c29 -3 64 -14 79 -25z"></path>
<path d="M1190 465 l0 -285 189 0 189 0 4 62 c3 35 4 65 2 66 -1 2 -56 6 -122
9 l-120 6 -4 44 c-2 24 -1 46 1 49 2 2 35 4 73 4 l68 0 0 50 0 50 -75 0 -75 0
0 34 c0 64 3 66 100 66 48 0 102 3 119 6 30 6 31 7 31 65 l0 59 -190 0 -190 0
0 -285z"></path>
<path d="M1812 743 c150 -304 258 -531 258 -543 0 -4 7 -13 15 -20 12 -10 36
32 155 274 77 158 140 289 140 291 0 3 -33 5 -73 5 l-73 0 -69 -146 -69 -146
-22 46 c-12 25 -39 85 -59 134 -21 48 -42 93 -48 100 -10 13 -162 18 -155 5z"></path>
<path d="M2746 468 l5 -283 62 0 62 0 3 98 c1 53 6 97 10 97 11 0 103 -107
137 -157 l28 -43 105 0 c117 0 114 -5 42 70 -19 20 -77 79 -127 132 -51 52
-93 99 -93 104 0 5 53 66 119 134 l118 125 -91 3 -91 3 -42 -48 c-24 -26 -57
-67 -75 -90 -18 -23 -35 -43 -38 -43 -3 0 -4 40 -2 90 l3 90 -70 0 -71 0 6
-282z"></path>
<path d="M4129 746 c-2 -3 -16 -7 -31 -10 -67 -12 -117 -72 -125 -149 -4 -44
-1 -58 19 -87 28 -41 87 -76 142 -86 22 -3 48 -11 58 -18 28 -17 22 -53 -11
-70 -35 -19 -86 -7 -129 29 l-29 24 -42 -43 -43 -43 34 -32 c68 -66 134 -86
222 -69 188 36 210 278 30 328 -27 8 -50 13 -52 12 -1 -1 -16 5 -32 13 -35 18
-39 49 -9 65 24 13 89 5 115 -15 16 -11 23 -7 60 33 l41 46 -24 19 c-48 38
-175 72 -194 53z"></path>
<path d="M4480 578 c0 -215 12 -269 75 -327 91 -84 238 -85 320 -3 59 59 69
100 73 310 l4 192 -70 0 -70 0 5 -82 c3 -46 0 -132 -5 -192 -8 -97 -12 -111
-33 -128 -18 -14 -35 -18 -67 -15 -88 9 -105 52 -100 265 l3 152 -67 0 -68 0
0 -172z"></path>
<path d="M5214 734 c3 -9 6 -135 6 -280 l0 -264 65 0 64 0 3 127 3 127 140
-118 c77 -66 148 -126 158 -134 16 -14 17 -1 17 271 l0 287 -65 0 -65 0 0
-135 c0 -74 -4 -135 -9 -135 -10 0 -70 51 -207 177 -101 93 -122 107 -110 77z"></path>
</g>
</svg></svg></g></svg>